<svg xmlns="http://www.w3.org/2000/svg" xmlns:xlink="http://www.w3.org/1999/xlink" width="200" height="200" viewBox="0 0 200 200" fill="none"><rect x="0" y="0" width="0" height="0" fill="rgba(249, 249, 249, 1)" /><g opacity="1"  transform="translate(0 0)  rotate(0)"><rect fill="#FFFFFF" opacity="1" transform="translate(0 0)  rotate(NaN)" x="0" y="0" width="200" height="200" /><mask id="bg-mask-0" fill="white"><use transform="translate(0 0)  rotate(NaN)" xlink:href="#path_0"></use></mask><g mask="url(#bg-mask-0)" ><g id="圆形 1" filter="url(#filter_1)"><path id="圆形 1" fill-rule="evenodd" fill="url(#linear_0)" opacity="1" d="M100,26.13c-40.8,0 -73.87,33.07 -73.87,73.87c0,40.8 33.07,73.87 73.87,73.87c40.8,0 73.87,-33.07 73.87,-73.87c0,-40.8 -33.07,-73.87 -73.87,-73.87zM189,100c0,49.15 -39.85,89 -89,89c-49.15,0 -89,-39.85 -89,-89c0,-49.15 39.85,-89 89,-89c49.15,0 89,39.85 89,89z"></path></g><g id="圆形 2" filter="url(#filter_2)"><path id="圆形 2" fill-rule="evenodd" style="fill:#4246F0" opacity="1" d="M100.5 81C89.73 81 81 89.73 81 100.5C81 111.27 89.73 120 100.5 120C111.27 120 120 111.27 120 100.5C120 89.73 111.27 81 100.5 81Z"></path></g><path id="圆形 3" fill-rule="evenodd" fill="url(#linear_1)" opacity="1" d="M100.5,80.93c-10.81,0 -19.57,8.76 -19.57,19.57c0,10.81 8.76,19.57 19.57,19.57c10.81,0 19.57,-8.76 19.57,-19.57c0,-10.81 -8.76,-19.57 -19.57,-19.57zM122,100.5c0,11.87 -9.63,21.5 -21.5,21.5c-11.87,0 -21.5,-9.63 -21.5,-21.5c0,-11.87 9.63,-21.5 21.5,-21.5c11.87,0 21.5,9.63 21.5,21.5z"></path><path id="直线 1" style="fill:url(#linear_2); opacity:100" d="M101.5,29v50.1199h-1v-50.1199z"></path><path id="直线 1" style="fill:url(#linear_3); opacity:100" d="M151.086,150.794l-35.44,-35.441l0.707,-0.707l35.441,35.44z"></path><path id="直线 1" style="fill:url(#linear_4); opacity:100" d="M48.6464,150.086l35.4401,-35.44l0.7071,0.707l-35.44,35.441z"></path><path id="圆形 4" fill-rule="evenodd" style="fill:#3ED5DA" opacity="1" d="M93 91C91.9 91 91 91.9 91 93C91 94.1 91.9 95 93 95C94.1 95 95 94.1 95 93C95 91.9 94.1 91 93 91Z"></path><path id="圆形 4" fill-rule="evenodd" style="fill:#F7BBCB" opacity="1" d="M109 91C107.9 91 107 91.9 107 93C107 94.1 107.9 95 109 95C110.1 95 111 94.1 111 93C111 91.9 110.1 91 109 91Z"></path><path id="矩形 1" fill-rule="evenodd" fill="url(#linear_5)" opacity="1" d="M97 112L105 112C107.21 112 109 110.21 109 108L93 108L93 108C93 110.21 94.79 112 97 112Z"></path></g></g><defs><rect id="path_0" x="0" y="0" width="200" height="200" /><linearGradient id="linear_0" x1="0%" y1="50%" x2="100%" y2="50%" gradientUnits="objectBoundingBox"><stop offset="0" stop-color="#4FACFE" stop-opacity="1" /><stop offset="1" stop-color="#00F2FE" stop-opacity="1" /></linearGradient><filter id="filter_1" x="-3" y="-4" width="206" height="208" filterUnits="userSpaceOnUse" color-interpolation-filters="sRGB"><feFlood flood-opacity="0" result="feFloodId"/>
          <feColorMatrix in="SourceAlpha" type="matrix" values="0 0 0 0 0 0 0 0 0 0 0 0 0 0 0 0 0 0 127 0" result="hardAlpha"/>
          <feMorphology radius="4" operator="erode" in="SourceAlpha"/>
          <feOffset dx="4" dy="5"/>
          <feGaussianBlur stdDeviation="3"/>
          <feComposite in2="hardAlpha" operator="arithmetic" k2="-1" k3="1"/>
          <feColorMatrix type="matrix" values="0 0 0 0 0.18823529411764706 0 0 0 0 0.18823529411764706 0 0 0 0 0.18823529411764706 0 0 0 0.43 0"/>
          <feBlend mode="normal" in2="filter_feFlood" result="filter_feFlood_1"/>
          <feBlend mode="normal" in="SourceGraphic" in2="filter_1" result="shape"/></filter><filter id="filter_2" x="29" y="29" width="143" height="143" filterUnits="userSpaceOnUse" color-interpolation-filters="sRGB"><feFlood flood-opacity="0" result="feFloodId"/>
          <feColorMatrix in="SourceAlpha" type="matrix" values="0 0 0 0 0 0 0 0 0 0 0 0 0 0 0 0 0 0 127 0" result="hardAlpha"/>
          <feMorphology radius="46" operator="dilate" in="SourceAlpha"/>
          <feOffset dx="0" dy="0"/>
          <feComposite in2="hardAlpha" operator="out"/>
          <feGaussianBlur stdDeviation="3"/>
          <feColorMatrix type="matrix" values="0 0 0 0 0.0196078431372549 0 0 0 0 0.803921568627451 0 0 0 0 0.9803921568627451 0 0 0 0.08 0"/>
          <feBlend mode="normal" in2="filter_feFlood" result="filter_feFlood_1"/>
          <feBlend mode="normal" in="SourceGraphic" in2="filter_2" result="shape"/></filter><linearGradient id="linear_1" x1="0%" y1="50%" x2="100%" y2="50%" gradientUnits="objectBoundingBox"><stop offset="0" stop-color="#2CD8D5" stop-opacity="1" /><stop offset="0.56" stop-color="#C5C1FF" stop-opacity="1" /><stop offset="1" stop-color="#FFBAC3" stop-opacity="1" /></linearGradient><linearGradient id="linear_2" x1="0%" y1="50%" x2="100%" y2="50%" gradientUnits="objectBoundingBox"><stop offset="0" stop-color="#FCFCFC" stop-opacity="1" /><stop offset="1" stop-color="#383838" stop-opacity="0.46" /></linearGradient><linearGradient id="linear_3" x1="0%" y1="50%" x2="100%" y2="50%" gradientUnits="objectBoundingBox"><stop offset="0" stop-color="#FCFCFC" stop-opacity="1" /><stop offset="1" stop-color="#383838" stop-opacity="0.46" /></linearGradient><linearGradient id="linear_4" x1="0%" y1="50%" x2="100%" y2="50%" gradientUnits="objectBoundingBox"><stop offset="0" stop-color="#FCFCFC" stop-opacity="1" /><stop offset="1" stop-color="#383838" stop-opacity="0.46" /></linearGradient><linearGradient id="linear_5" x1="0%" y1="50%" x2="100%" y2="50%" gradientUnits="objectBoundingBox"><stop offset="0" stop-color="#51CDD0" stop-opacity="1" /><stop offset="1" stop-color="#FBBAC7" stop-opacity="1" /></linearGradient></defs></svg>